# Blender 4.2.2 LTS
# www.blender.org
mtllib 6angel.mtl
o Cylinder
v 0.007594 -0.231371 -1.000000
v 0.007594 0.231371 -1.000000
v 0.873619 -0.231371 -0.500000
v 0.873619 0.231371 -0.500000
v 0.873619 -0.231371 0.500000
v 0.873619 0.231371 0.500000
v 0.007594 -0.231371 1.000000
v 0.007594 0.231371 1.000000
v -0.858431 -0.231371 0.500000
v -0.858431 0.231371 0.500000
v -0.858431 -0.231371 -0.500000
v -0.858431 0.231371 -0.500000
v 0.526374 0.231371 -0.299518
v -0.511186 0.231371 -0.299518
v 0.007594 0.231371 0.599036
v -0.511186 0.231371 0.299518
v 0.007594 0.231371 -0.599036
v 0.526374 0.231371 0.299518
v 0.007594 -0.231371 -0.599036
v 0.526374 -0.231371 0.299518
v -0.511186 -0.231371 0.299518
v -0.511186 -0.231371 -0.299518
v 0.007594 -0.231371 0.599036
v 0.526374 -0.231371 -0.299518
vn 0.5000 -0.0000 -0.8660
vn 1.0000 -0.0000 -0.0000
vn 0.5000 -0.0000 0.8660
vn -0.5000 -0.0000 0.8660
vn -0.0000 1.0000 -0.0000
vn -1.0000 -0.0000 -0.0000
vn -0.5000 -0.0000 -0.8660
vn -0.0000 -1.0000 -0.0000
vt 1.000000 0.500000
vt 1.000000 1.000000
vt 0.833333 1.000000
vt 0.833333 0.500000
vt 0.666667 1.000000
vt 0.666667 0.500000
vt 0.500000 1.000000
vt 0.500000 0.500000
vt 0.333333 1.000000
vt 0.333333 0.500000
vt 0.250000 0.106231
vt 0.250000 0.010000
vt 0.457846 0.130000
vt 0.457846 0.370000
vt 0.250000 0.490000
vt 0.250000 0.393769
vt 0.374507 0.321884
vt 0.374507 0.178116
vt 0.042154 0.370000
vt 0.042154 0.130000
vt 0.125493 0.178116
vt 0.125493 0.321884
vt 0.166667 1.000000
vt 0.166667 0.500000
vt -0.000000 1.000000
vt -0.000000 0.500000
vt 0.750000 0.393769
vt 0.750000 0.490000
vt 0.957846 0.370000
vt 0.957846 0.130000
vt 0.750000 0.010000
vt 0.750000 0.106231
vt 0.874507 0.178116
vt 0.874507 0.321884
vt 0.542154 0.130000
vt 0.542154 0.370000
vt 0.625493 0.321884
vt 0.625493 0.178116
vt 0.833333 0.612252
vt 0.833333 0.887748
vt 1.000000 0.887748
vt 1.000000 0.612252
vt 0.666667 0.887748
vt 0.666667 0.612252
vt 0.500000 0.887748
vt 0.500000 0.612252
vt 0.333333 0.887748
vt 0.333333 0.612252
vt 0.166667 0.612252
vt 0.166667 0.887748
vt -0.000000 0.612252
vt -0.000000 0.887748
s 0
f 1/1/1 2/2/1 4/3/1 3/4/1
f 3/4/2 4/3/2 6/5/2 5/6/2
f 5/6/3 6/5/3 8/7/3 7/8/3
f 7/8/4 8/7/4 10/9/4 9/10/4
f 15/11/5 8/12/5 6/13/5 4/14/5 2/15/5 17/16/5 13/17/5 18/18/5
f 17/16/5 2/15/5 12/19/5 10/20/5 8/12/5 15/11/5 16/21/5 14/22/5
f 9/10/6 10/9/6 12/23/6 11/24/6
f 11/24/7 12/23/7 2/25/7 1/26/7
f 19/27/8 1/28/8 3/29/8 5/30/8 7/31/8 23/32/8 20/33/8 24/34/8
f 7/31/8 9/35/8 11/36/8 1/28/8 19/27/8 22/37/8 21/38/8 23/32/8
f 24/39/4 13/40/4 17/41/4 19/42/4
f 18/43/6 13/40/6 24/39/6 20/44/6
f 15/45/7 18/43/7 20/44/7 23/46/7
f 16/47/1 15/45/1 23/46/1 21/48/1
f 22/49/2 14/50/2 16/47/2 21/48/2
f 19/51/3 17/52/3 14/50/3 22/49/3
